<svg width="18" height="18" viewBox="0 0 18 18" fill="none" xmlns="http://www.w3.org/2000/svg">
<path d="M9 4.60742C11.3379 4.60742 13.2676 6.53711 13.2676 8.875C13.2676 11.25 11.3379 13.1426 9 13.1426C6.625 13.1426 4.73242 11.25 4.73242 8.875C4.73242 6.53711 6.625 4.60742 9 4.60742ZM9 11.6582C10.5215 11.6582 11.7461 10.4336 11.7461 8.875C11.7461 7.35352 10.5215 6.12891 9 6.12891C7.44141 6.12891 6.2168 7.35352 6.2168 8.875C6.2168 10.4336 7.47852 11.6582 9 11.6582ZM14.418 4.45898C14.418 5.01562 13.9727 5.46094 13.416 5.46094C12.8594 5.46094 12.4141 5.01562 12.4141 4.45898C12.4141 3.90234 12.8594 3.45703 13.416 3.45703C13.9727 3.45703 14.418 3.90234 14.418 4.45898ZM17.2383 5.46094C17.3125 6.83398 17.3125 10.9531 17.2383 12.3262C17.1641 13.6621 16.8672 14.8125 15.9023 15.8145C14.9375 16.7793 13.75 17.0762 12.4141 17.1504C11.041 17.2246 6.92188 17.2246 5.54883 17.1504C4.21289 17.0762 3.0625 16.7793 2.06055 15.8145C1.0957 14.8125 0.798828 13.6621 0.724609 12.3262C0.650391 10.9531 0.650391 6.83398 0.724609 5.46094C0.798828 4.125 1.0957 2.9375 2.06055 1.97266C3.0625 1.00781 4.21289 0.710938 5.54883 0.636719C6.92188 0.5625 11.041 0.5625 12.4141 0.636719C13.75 0.710938 14.9375 1.00781 15.9023 1.97266C16.8672 2.9375 17.1641 4.125 17.2383 5.46094ZM15.457 13.7734C15.9023 12.6973 15.791 10.0996 15.791 8.875C15.791 7.6875 15.9023 5.08984 15.457 3.97656C15.1602 3.27148 14.6035 2.67773 13.8984 2.41797C12.7852 1.97266 10.1875 2.08398 9 2.08398C7.77539 2.08398 5.17773 1.97266 4.10156 2.41797C3.35938 2.71484 2.80273 3.27148 2.50586 3.97656C2.06055 5.08984 2.17188 7.6875 2.17188 8.875C2.17188 10.0996 2.06055 12.6973 2.50586 13.7734C2.80273 14.5156 3.35938 15.0723 4.10156 15.3691C5.17773 15.8145 7.77539 15.7031 9 15.7031C10.1875 15.7031 12.7852 15.8145 13.8984 15.3691C14.6035 15.0723 15.1973 14.5156 15.457 13.7734Z" fill="#292F36"/>
</svg>
