<svg width="17" height="17" viewBox="0 0 17 17" fill="none" xmlns="http://www.w3.org/2000/svg">
<path d="M4.14062 16.5H0.871094V5.98828H4.14062V16.5ZM2.48828 4.58203C1.46875 4.58203 0.625 3.70312 0.625 2.64844C0.625 1.62891 1.46875 0.785156 2.48828 0.785156C3.54297 0.785156 4.38672 1.62891 4.38672 2.64844C4.38672 3.70312 3.54297 4.58203 2.48828 4.58203ZM16.3398 16.5H13.1055V11.4023C13.1055 10.1719 13.0703 8.625 11.3828 8.625C9.69531 8.625 9.44922 9.92578 9.44922 11.2969V16.5H6.17969V5.98828H9.30859V7.42969H9.34375C9.80078 6.62109 10.8555 5.74219 12.4375 5.74219C15.7422 5.74219 16.375 7.92188 16.375 10.7344V16.5H16.3398Z" fill="#292F36"/>
</svg>
